<svg width="36" height="35" viewBox="0 0 36 35" fill="none" xmlns="http://www.w3.org/2000/svg">
<path d="M5.60097 34.855C4.44131 34.855 3.35382 34.7057 2.54117 34.0868C1.38447 33.203 1.04043 31.4996 0.709238 29.8516C0.587637 29.2495 0.472957 28.679 0.322686 28.164C-0.090561 26.7423 0.162529 25.2801 1.01473 24.1511C1.86099 23.033 3.22728 22.4269 4.65486 22.4062C5.75817 22.4141 6.87136 22.4774 7.94996 22.5397C9.1462 22.6089 10.381 22.682 11.5891 22.6711C14.21 22.6524 16.8298 22.601 19.4507 22.5495C22.4156 22.4912 25.4803 22.4309 28.4976 22.422C29.6602 22.4171 30.808 22.6 31.9193 22.7769C32.4205 22.857 32.9217 22.9361 33.422 22.9984C33.4427 23.0004 33.4625 23.0043 33.4813 23.0083C33.51 21.6865 33.6385 20.3795 33.9104 19.0854L26.4274 10.3311C26.1615 10.0197 26.1991 9.55106 26.5095 9.28413C26.8209 9.01917 27.2895 9.05673 27.5564 9.36617L35.2796 18.4032C35.4318 18.5832 35.4912 18.8244 35.4378 19.0528C34.5322 22.9658 35.0908 27.1348 35.6849 31.549C35.7887 32.3291 35.8955 33.116 35.9944 33.9099C36.0211 34.1204 35.9548 34.333 35.8144 34.4922C35.6741 34.6513 35.4714 34.7423 35.2588 34.7423L21.0088 34.7463C16.9643 34.7512 12.9188 34.7571 8.87432 34.7285C8.36913 34.7265 7.82045 34.7571 7.27077 34.7907C6.71121 34.8214 6.14769 34.855 5.60097 34.855ZM4.62223 23.8891C3.63855 23.8891 2.7557 24.3103 2.1991 25.0458C1.63163 25.7972 1.46752 26.7828 1.74829 27.7497C1.91536 28.3241 2.04093 28.9519 2.16352 29.5579C2.44132 30.9371 2.72802 32.3617 3.44181 32.9074C4.20009 33.4838 5.71368 33.3948 7.1808 33.3068C7.76409 33.2722 8.34343 33.2445 8.88322 33.2435C12.9218 33.2702 16.9633 33.2643 21.0058 33.2613L34.4146 33.2574C34.3483 32.7502 34.2801 32.247 34.2129 31.7438C33.8767 29.2475 33.5515 26.8244 33.4872 24.4576C33.4081 24.4754 33.3251 24.4793 33.2401 24.4695C32.723 24.4052 32.204 24.3231 31.6869 24.2411C30.5846 24.0651 29.5337 23.8891 28.5035 23.905C25.4971 23.9148 22.4363 23.9742 19.4784 24.0325C16.8526 24.0839 14.2258 24.1353 11.599 24.1541C10.3444 24.166 9.0849 24.0918 7.86592 24.0206C6.8071 23.9593 5.7117 23.897 4.64497 23.8901C4.63805 23.8891 4.63014 23.8891 4.62223 23.8891Z" fill="black"/>
<path d="M2.23451 24.4751C1.85389 24.4751 1.52962 24.1834 1.496 23.7949C1.35661 22.1498 1.21227 20.5067 1.06694 18.8626C0.694228 14.6392 0.308663 10.2724 0.02987 5.96597C-0.0343909 4.94669 -0.236073 1.84437 2.58152 0.738092C6.10301 -0.646977 8.74859 -0.0864228 10.6764 2.45139C10.9236 2.77763 10.8603 3.24327 10.5331 3.49043C10.2058 3.73759 9.74117 3.67629 9.49401 3.34807C7.98141 1.35697 6.01701 0.979321 3.12428 2.11723C1.87169 2.60858 1.3744 3.76527 1.51083 5.86908C1.78864 10.1577 2.17321 14.5166 2.54395 18.7311C2.68928 20.3772 2.83461 22.0233 2.97499 23.6693C3.0096 24.0776 2.70707 24.4365 2.29778 24.4721C2.27702 24.4741 2.25527 24.4751 2.23451 24.4751Z" fill="black"/>
<path d="M7.06506 23.8731C6.91479 23.8731 6.76353 23.8276 6.63204 23.7337C6.29986 23.4945 6.22374 23.0318 6.46299 22.6986C10.7358 16.753 17.0028 13.3927 23.064 10.143C23.9498 9.66752 24.8406 9.19 25.7264 8.7036C22.3473 5.21176 18.0013 3.33831 11.4506 2.52467C11.3043 2.7135 11.153 2.89639 11.0067 3.0783C10.5539 3.63391 10.1249 4.15789 9.90538 4.70559L9.85991 4.81927C8.78329 7.50043 7.66911 10.2726 6.93159 13.0704C6.41751 15.016 6.10807 17.0704 5.80752 19.0575C5.67109 19.9562 5.53565 20.8548 5.38044 21.7495C5.31222 22.1529 4.92567 22.4248 4.5233 22.3536C4.12093 22.2854 3.84905 21.9008 3.91925 21.4974C4.07051 20.6126 4.20594 19.7248 4.3404 18.837C4.64687 16.8113 4.96323 14.7164 5.49709 12.6937C6.25932 9.8069 7.38933 6.99031 8.48374 4.26862L8.52922 4.15591C8.83371 3.39665 9.35373 2.75996 9.85793 2.14306C10.0784 1.87316 10.3038 1.59634 10.5144 1.30569C10.6716 1.08819 10.9296 0.971532 11.1995 1.00317C16.5638 1.62403 22.6903 2.98833 27.4694 8.407C27.6177 8.57507 27.6829 8.80048 27.6453 9.02292C27.6068 9.24437 27.4704 9.43519 27.2756 9.54394C26.108 10.1935 24.9355 10.8232 23.766 11.452C17.5811 14.7678 11.7413 17.8998 7.66813 23.5666C7.5228 23.7663 7.29541 23.8731 7.06506 23.8731Z" fill="black"/>
<path d="M11.2923 23.8721C11.053 23.8721 10.8177 23.7564 10.6744 23.5419C10.447 23.2008 10.5379 22.7411 10.88 22.5137C11.3387 22.2072 11.7856 21.8592 12.2325 21.5122C13.2784 20.6996 14.358 19.8592 15.6324 19.4806C19.3812 18.3723 23.2379 17.4401 26.969 16.5355C28.4282 16.1845 29.8844 15.8306 31.3397 15.4668C31.7371 15.3669 32.1405 15.6101 32.2383 16.0066C32.3392 16.404 32.096 16.8073 31.6986 16.9052C30.2403 17.27 28.7791 17.624 27.317 17.9759C23.6047 18.8736 19.7638 19.8039 16.0515 20.9003C15.0451 21.1978 14.1198 21.9176 13.141 22.6798C12.6655 23.0495 12.1899 23.4193 11.7006 23.7445C11.577 23.8315 11.4336 23.8721 11.2923 23.8721Z" fill="black"/>
<path d="M4.34823 23.7206C4.2029 23.7206 4.05362 23.6771 3.92411 23.5862C3.58896 23.3528 3.5069 22.8892 3.74022 22.554C4.40754 21.601 5.06795 20.644 5.72835 19.688C9.49107 14.2337 13.3813 8.59458 18.3284 3.87685C18.624 3.59311 19.0926 3.60399 19.3764 3.90058C19.6601 4.19717 19.6482 4.66578 19.3516 4.94952C14.5153 9.56345 10.6695 15.1383 6.94931 20.5303C6.28693 21.4903 5.62455 22.4492 4.95722 23.4052C4.81189 23.6099 4.58155 23.7206 4.34823 23.7206Z" fill="black"/>
<path d="M6.46196 31.721C6.27808 31.721 6.09617 31.6538 5.95183 31.5173L3.71159 29.3957C3.48619 29.1832 3.41896 28.853 3.53958 28.5683C5.04723 25.0062 7.79661 26.073 9.11643 26.5841C9.29834 26.6543 9.44465 26.7937 9.52473 26.9716C9.97752 27.979 10.0448 28.8124 9.73333 29.5233C9.26077 30.5969 8.04377 31.0349 7.10852 31.3463C7.07985 31.3977 7.04525 31.4471 7.00274 31.4906C6.85444 31.6439 6.6587 31.721 6.46196 31.721ZM5.12039 28.6889L6.49261 29.9879C6.50645 29.983 6.51733 29.977 6.53117 29.9731C7.38435 29.6913 8.16734 29.3977 8.37496 28.9242C8.48568 28.6731 8.45503 28.3142 8.28499 27.8545C6.7447 27.2969 5.84802 27.3236 5.12039 28.6889Z" fill="black"/>
</svg>
