<svg width="73" height="68" viewBox="0 0 73 68" fill="none" xmlns="http://www.w3.org/2000/svg">
<path d="M23.5901 52.8287V67.9787H15.3101V52.8287L18.2101 50.7387V38.3787L19.4501 35.3887L20.7001 38.3787V50.7387L23.5901 52.8287Z" fill="white"/>
<path d="M72.07 28.51V67.98H49.75V50.88L46.93 49.26C46.7807 49.1715 46.6571 49.0457 46.5712 48.8949C46.4853 48.7441 46.4401 48.5736 46.44 48.4V42.4C46.4418 42.2282 46.4878 42.0597 46.5736 41.9108C46.6595 41.7619 46.7822 41.6376 46.93 41.5499L48.28 40.77C48.43 40.6901 48.5979 40.6495 48.7678 40.6525C48.9377 40.6554 49.104 40.7016 49.2511 40.7866C49.3982 40.8717 49.5213 40.9929 49.6086 41.1387C49.6958 41.2845 49.7445 41.4501 49.75 41.62V45.95C49.75 46.2152 49.8554 46.4696 50.0429 46.6571C50.2305 46.8446 50.4848 46.95 50.75 46.95H54.5201C54.7853 46.95 55.0396 46.8446 55.2271 46.6571C55.4147 46.4696 55.5201 46.2152 55.5201 45.95V41.64C55.5247 41.4687 55.5732 41.3015 55.6611 41.1544C55.7489 41.0073 55.8731 40.8853 56.0216 40.7999C56.1702 40.7146 56.3382 40.6688 56.5096 40.6671C56.6809 40.6654 56.8498 40.7076 57 40.7899L58.32 41.5499C58.4679 41.6376 58.5906 41.7619 58.6765 41.9108C58.7623 42.0597 58.8083 42.2282 58.81 42.4V48.4C58.81 48.5736 58.7648 48.7441 58.6789 48.8949C58.593 49.0457 58.4693 49.1715 58.32 49.26L55.53 50.87V62.25H66.38V31.25L36.08 7.25L5.77005 31.25V67.9399H0.0400391V28.47L36.04 0L72.07 28.51Z" fill="#F9BC23"/>
<path d="M47.5201 33.9298C45.8001 33.2398 43.0601 32.3498 41.2701 32.7898C41.2273 32.7987 41.183 32.7987 41.1401 32.7898H38.8801V67.9598H33.1501V32.7898H31.7701C31.6084 32.7898 31.4532 32.7256 31.3388 32.6112C31.2244 32.4968 31.1601 32.3416 31.1601 32.1798V32.0099C31.1601 31.9302 31.1443 31.8514 31.1135 31.778C31.0827 31.7045 31.0376 31.6379 30.9809 31.582C30.9241 31.5262 30.8568 31.4822 30.7828 31.4526C30.7089 31.4231 30.6298 31.4085 30.5501 31.4098H29.2801C29.2005 31.4085 29.1214 31.4231 29.0475 31.4526C28.9735 31.4822 28.9062 31.5262 28.8494 31.582C28.7926 31.6379 28.7475 31.7045 28.7167 31.778C28.686 31.8514 28.6701 31.9302 28.6701 32.0099V32.3499C28.6701 32.509 28.6069 32.6615 28.4944 32.774C28.3819 32.8866 28.2293 32.9498 28.0701 32.9498H23.4801C23.4005 32.9512 23.3214 32.9367 23.2474 32.9071C23.1735 32.8775 23.1062 32.8336 23.0494 32.7777C22.9926 32.7219 22.9475 32.6552 22.9167 32.5818C22.886 32.5083 22.8701 32.4295 22.8701 32.3499V27.1998C22.8701 27.038 22.9344 26.883 23.0488 26.7686C23.1632 26.6542 23.3184 26.5898 23.4801 26.5898H28.0901C28.1698 26.5898 28.2486 26.6057 28.3221 26.6365C28.3955 26.6673 28.4621 26.7123 28.518 26.769C28.5738 26.8258 28.6178 26.8932 28.6474 26.9672C28.6769 27.0411 28.6915 27.1202 28.6901 27.1998V27.5398C28.6901 27.6194 28.7059 27.6983 28.7367 27.7717C28.7675 27.8452 28.8126 27.9118 28.8694 27.9677C28.9262 28.0235 28.9935 28.0675 29.0674 28.097C29.1414 28.1266 29.2205 28.1412 29.3001 28.1399H30.5701C30.6498 28.1412 30.7288 28.1266 30.8028 28.097C30.8767 28.0675 30.9441 28.0235 31.0009 27.9677C31.0577 27.9118 31.1027 27.8452 31.1335 27.7717C31.1643 27.6983 31.1801 27.6194 31.1801 27.5398V27.3599C31.1801 27.2802 31.196 27.2014 31.2267 27.1279C31.2575 27.0545 31.3026 26.9879 31.3594 26.932C31.4162 26.8762 31.4835 26.8322 31.5574 26.8026C31.6314 26.7731 31.7105 26.7586 31.7901 26.7599H41.0601C41.1536 26.7586 41.246 26.7791 41.3301 26.8198C44.1424 28.2537 46.5338 30.3935 48.2701 33.0298C48.344 33.1393 48.3803 33.2699 48.3736 33.4019C48.3669 33.5338 48.3175 33.6599 48.233 33.7614C48.1484 33.8628 48.0332 33.9341 47.9047 33.9645C47.7761 33.9949 47.6412 33.9827 47.5201 33.9298Z" fill="white"/>
</svg>
