<svg width="36" height="49" viewBox="0 0 36 49" fill="none" xmlns="http://www.w3.org/2000/svg">
<path fill-rule="evenodd" clip-rule="evenodd" d="M31.7647 48.7059H4.23529C1.89635 48.7059 0 46.8095 0 44.4706V4.23529C0 1.89635 1.89635 0 4.23529 0H24.3244C24.3265 0 24.3296 0 24.3318 0H24.3529C24.6918 0 24.9808 0.170471 25.1746 0.418235L35.5818 10.8254C35.8306 11.0192 36 11.3082 36 11.6471V11.6693C36 11.6714 36 11.6725 36 11.6746V44.4706C36 46.8095 34.1036 48.7059 31.7647 48.7059ZM25.4118 3.57988V10.5882H32.4201L25.4118 3.57988ZM33.8824 12.7059H24.3529C23.7674 12.7059 23.2941 12.2315 23.2941 11.6471V2.11765H4.23529C3.06635 2.11765 2.11765 3.06635 2.11765 4.23529V44.4706C2.11765 45.6395 3.06635 46.5882 4.23529 46.5882H31.7647C32.9336 46.5882 33.8824 45.6395 33.8824 44.4706V12.7059ZM27.5294 40.2353H8.47059C7.88506 40.2353 7.41177 39.762 7.41177 39.1765C7.41177 38.592 7.88506 38.1176 8.47059 38.1176H27.5294C28.1149 38.1176 28.5882 38.592 28.5882 39.1765C28.5882 39.762 28.1149 40.2353 27.5294 40.2353ZM27.5294 31.7647H8.47059C7.88506 31.7647 7.41177 31.2914 7.41177 30.7059C7.41177 30.1214 7.88506 29.6471 8.47059 29.6471H27.5294C28.1149 29.6471 28.5882 30.1214 28.5882 30.7059C28.5882 31.2914 28.1149 31.7647 27.5294 31.7647ZM27.5294 23.2941H8.47059C7.88506 23.2941 7.41177 22.8208 7.41177 22.2353C7.41177 21.6508 7.88506 21.1765 8.47059 21.1765H27.5294C28.1149 21.1765 28.5882 21.6508 28.5882 22.2353C28.5882 22.8208 28.1149 23.2941 27.5294 23.2941Z" fill="black"/>
</svg>
