<svg width="36" height="40" viewBox="0 0 36 40" fill="none" xmlns="http://www.w3.org/2000/svg">
<path d="M14.6648 1.04027C14.4029 1.16621 14.2675 1.48104 14.2675 1.99377V2.41654L13.6986 2.63243C11.3869 3.50497 9.54479 5.50191 8.66888 8.08354C8.44313 8.74919 8.40701 8.80316 8.11806 8.87512C7.94649 8.9201 7.75686 9.00106 7.69365 9.06402C7.52208 9.22594 7.14282 11.034 7.13379 11.6726C7.13379 12.5272 7.27827 12.869 7.94649 13.5257C9.07523 14.6501 11.2244 15.4057 14.5022 15.8284C15.9651 16.0263 19.7125 16.0443 21.2205 15.8734C25.4285 15.3967 28.2188 14.2903 28.9953 12.788C29.203 12.3923 29.2301 11.0879 29.0676 9.97254C28.9321 9.09101 28.8057 8.93809 28.1375 8.85713L27.6228 8.80316L27.397 8.12852C26.8914 6.60832 25.88 5.04315 24.8596 4.1976C24.2546 3.69387 23.2071 3.04621 22.6563 2.85731L22.2138 2.6954V2.1287C22.2138 1.47204 22.0964 1.16621 21.7894 1.03128C21.5005 0.896349 14.9357 0.905344 14.6648 1.04027ZM20.769 2.74037C20.769 2.93827 20.6065 4.08066 20.4078 5.27703C20.0015 7.66077 20.0105 7.84067 20.5072 8.03856C20.8503 8.18249 21.2567 8.02057 21.3921 7.69675C21.4463 7.56182 21.6088 6.73426 21.7533 5.84373C21.9068 4.96219 22.0423 4.22459 22.0603 4.1976C22.1326 4.12564 22.7376 4.42248 23.2703 4.78229C23.8121 5.15109 24.5706 5.87071 24.977 6.41942C25.3924 6.97713 25.9071 8.10153 26.187 9.04603C26.494 10.1345 26.6385 10.2874 27.2796 10.2874C27.686 10.2874 27.7221 10.3054 27.7221 10.4943C27.7221 10.6112 27.7492 11.016 27.7763 11.3848C27.8395 12.0414 27.8305 12.0594 27.5505 12.3833C25.889 14.2633 18.6289 15.1808 13.211 14.1913C11.1341 13.8135 9.44546 13.1479 8.84948 12.4822C8.62373 12.2213 8.57858 12.0954 8.57858 11.6816C8.57858 11.4208 8.62373 10.998 8.68694 10.7461C8.77724 10.3593 8.82239 10.2874 8.99396 10.2874C9.38225 10.2874 9.63509 9.93656 9.84278 9.12699C10.4117 6.86918 11.8203 5.10612 13.834 4.11664C14.123 3.98171 14.3668 3.88277 14.3849 3.90975C14.4029 3.92774 14.5564 4.7553 14.719 5.74478C14.8815 6.72526 15.0531 7.62478 15.0982 7.73273C15.2427 8.02957 15.649 8.17349 15.9741 8.03856C16.4708 7.84067 16.4798 7.66077 16.0735 5.27703C15.8748 4.08066 15.7123 2.93827 15.7123 2.74037V2.37157H18.2406H20.769V2.74037Z" fill="black"/>
<path d="M23.7035 11.106C23.5591 11.151 23.0082 11.2679 22.4845 11.3579C19.5317 11.8886 15.405 11.8346 12.4071 11.2139C11.7117 11.07 11.6576 11.07 11.4318 11.2139C10.9984 11.5018 11.0074 12.1674 11.4499 12.3923C12.3348 12.8421 16.2177 13.2289 18.9177 13.1299C21.428 13.04 24.137 12.6172 24.6065 12.2484C24.9316 11.9965 24.9226 11.4478 24.5975 11.1959C24.3356 10.998 24.137 10.9711 23.7035 11.106Z" fill="black"/>
<path d="M10.7725 15.6837C10.6641 15.7287 10.5016 15.8726 10.4203 15.9986C10.2849 16.2055 10.2759 16.2954 10.3842 16.7452C10.7635 18.4813 11.9554 21.3238 12.7681 22.4661C13.2557 23.1498 14.24 24.1573 14.8992 24.652C16.5697 25.9113 18.7279 26.1632 20.4526 25.3176C22.6198 24.2472 24.5883 21.1528 25.5184 17.3479C25.7803 16.2504 25.7893 16.1335 25.5455 15.8277C25.3198 15.5398 24.7689 15.4948 24.5432 15.7467C24.4619 15.8367 24.2904 16.3494 24.1639 16.8981C23.4957 19.6686 22.4753 21.6656 20.9402 23.2217C19.676 24.4901 18.0597 24.7509 16.4343 23.9504C15.8112 23.6355 14.6464 22.5831 14.0323 21.7735C13.2648 20.7571 12.4882 18.985 11.9193 16.9791C11.7658 16.4393 11.5762 15.9356 11.4859 15.8547C11.2782 15.6478 11.0163 15.5938 10.7725 15.6837Z" fill="black"/>
<path d="M23.2251 27.4409C23.1257 27.5309 22.9722 27.8277 22.891 28.0976C22.1234 30.5173 20.48 32.1814 18.6559 32.3973C16.2539 32.6941 14.466 31.2369 13.2108 27.9626C12.9309 27.234 12.9851 27.234 9.54467 28.0796C7.89219 28.4844 6.28485 28.8802 5.95978 28.9431C4.78588 29.204 2.83541 29.7437 2.52839 29.8966C2.07689 30.1215 1.508 30.7692 1.18293 31.4168C0.469558 32.8111 0 35.5096 0 38.1812C0 39.1527 0.0180599 39.2337 0.207689 39.4136C0.442468 39.6385 0.875907 39.6744 1.11972 39.4945C1.33643 39.3326 1.43576 38.7659 1.44479 37.6325C1.45382 35.5906 1.84211 33.3418 2.39294 32.1904C2.79929 31.3359 3.00698 31.1739 3.94609 30.9221C4.38856 30.8051 4.76782 30.7062 4.81297 30.7062C4.84909 30.7062 4.87618 32.6042 4.87618 34.9339C4.87618 37.8754 4.90327 39.2247 4.97551 39.3776C5.11999 39.6924 5.52634 39.8453 5.86045 39.7014C6.00493 39.6475 6.15844 39.5305 6.20359 39.4496C6.23971 39.3596 6.29388 37.2727 6.32097 34.808L6.36612 30.3104L7.54002 30.0226C8.19018 29.8606 8.82227 29.7077 8.96675 29.6807L9.21056 29.6268V32.955C9.21056 35.1948 9.24668 36.3462 9.30989 36.4901C9.36407 36.6161 9.50855 36.76 9.63497 36.814C9.94199 36.9579 26.5391 36.9579 26.8461 36.814C26.9725 36.76 27.117 36.6161 27.1712 36.4901C27.2344 36.3462 27.2705 35.1948 27.2705 32.955V29.6448L28.7153 30.0136L30.1601 30.3824V34.4122C30.1601 37.2097 30.1872 38.5051 30.2594 38.658C30.4942 39.1527 31.2708 39.1527 31.5055 38.658C31.5778 38.5051 31.6049 37.2637 31.6049 34.6191C31.6049 32.4243 31.641 30.7961 31.6861 30.7961C31.9661 30.7961 32.9594 31.1829 33.1129 31.3538C33.5734 31.8576 34.0249 33.1079 34.2597 34.5292C34.4222 35.4917 34.5848 37.4796 34.5848 38.4511C34.5848 39.0088 34.6209 39.1797 34.7744 39.3776C35.0814 39.7644 35.6684 39.6924 35.9031 39.2337C36.0205 39.0088 36.0296 38.7389 35.9393 37.2457C35.7045 32.7931 34.8918 30.5083 33.3206 29.8157C32.8781 29.6178 23.9023 27.288 23.5953 27.288C23.496 27.288 23.3244 27.36 23.2251 27.4409ZM12.5697 29.9686C13.8429 32.5412 15.7121 33.8545 18.1051 33.8545C20.48 33.8545 22.4033 32.4872 23.6766 29.8966C23.9384 29.3749 24.1552 28.9341 24.1732 28.9161C24.2003 28.8802 24.8956 29.0151 25.4916 29.186L25.8257 29.2759V32.3703V35.4737H18.2405H10.6554V32.3703V29.2759L10.9985 29.186C11.1791 29.141 11.4771 29.0601 11.6487 29.0151C11.8202 28.9611 11.9828 28.9251 12.0099 28.9161C12.0369 28.9161 12.2898 29.3929 12.5697 29.9686Z" fill="black"/>
<path d="M19.7124 37.7407C19.604 37.7946 19.4686 37.9476 19.4053 38.0915C19.2699 38.4243 19.4234 38.8291 19.7395 38.973C20.0555 39.108 26.539 39.108 26.8551 38.973C26.9725 38.9101 27.126 38.7481 27.1892 38.6132C27.3246 38.2804 27.1711 37.8756 26.8551 37.7317C26.5571 37.5968 20.0013 37.6057 19.7124 37.7407Z" fill="black"/>
</svg>
