<svg width="36" height="36" viewBox="0 0 36 36" fill="none" xmlns="http://www.w3.org/2000/svg">
<path d="M34 25C31.51 25 29.11 24.6 26.86 23.86C26.17 23.64 25.38 23.8 24.83 24.35L20.43 28.76C14.76 25.88 10.14 21.25 7.25 15.59L11.65 11.18C12.2 10.63 12.36 9.84 12.14 9.15C11.4 6.9 11 4.49 11 2C11 0.89 10.11 0 9 0H2C0.89 0 0 0.89 0 2C0 20.78 15.22 36 34 36C35.11 36 36 35.11 36 34V27C36 25.89 35.11 25 34 25Z" fill="#FFC527"/>
<path d="M16 12H20V16H16V12Z" fill="black"/>
<path d="M24 12H28V16H24V12Z" fill="black"/>
<path d="M32 16V12H36V16H32Z" fill="black"/>
</svg>
