<?xml version="1.0" standalone="no"?>
<!DOCTYPE svg PUBLIC "-//W3C//DTD SVG 20010904//EN"
 "http://www.w3.org/TR/2001/REC-SVG-20010904/DTD/svg10.dtd">
<svg version="1.0" xmlns="http://www.w3.org/2000/svg"
 width="615.000000pt" height="911.000000pt" viewBox="0 0 615.000000 911.000000"
 preserveAspectRatio="xMidYMid meet">

<g transform="translate(0.000000,911.000000) scale(0.100000,-0.100000)"
fill="#000000" stroke="none">
<path d="M2170 8940 c-132 -21 -280 -84 -413 -176 -43 -30 -82 -54 -86 -54 -9
0 -81 -74 -81 -83 0 -13 28 -7 41 10 25 30 92 73 113 73 19 -1 18 -3 -9 -23
-102 -74 -206 -196 -290 -337 -75 -128 -115 -252 -136 -422 -10 -87 -14 -96
-48 -134 -21 -22 -46 -61 -56 -87 -15 -40 -16 -54 -6 -87 13 -44 22 -47 64
-25 26 14 28 13 37 -11 6 -14 10 -47 10 -73 0 -103 69 -268 189 -451 30 -47
61 -97 68 -112 7 -16 17 -28 23 -28 13 0 13 -142 0 -230 -6 -36 -13 -128 -16
-205 -5 -115 -4 -138 7 -128 26 25 115 356 126 466 l6 69 46 20 c25 10 59 31
74 46 36 35 47 27 110 -74 91 -147 235 -302 351 -380 43 -28 69 -37 128 -45
94 -11 132 -20 138 -30 3 -4 4 -27 2 -50 l-4 -41 -57 4 c-87 6 -131 32 -343
207 -19 16 -32 21 -39 14 -12 -12 36 -86 114 -176 152 -175 267 -333 267 -365
0 -11 -8 -13 -37 -9 -104 17 -257 128 -455 330 -163 167 -190 181 -162 85 9
-29 29 -84 44 -123 34 -83 46 -140 31 -149 -6 -4 -66 16 -134 44 l-124 50 -63
-25 c-64 -25 -80 -25 -80 0 0 37 -68 44 -168 19 -51 -13 -72 -14 -102 -5 -30
9 -50 7 -111 -10 -84 -23 -166 -64 -180 -91 -7 -13 -4 -20 12 -29 26 -13 86 0
168 38 31 13 76 33 102 42 l46 18 41 -29 c23 -16 42 -33 42 -37 0 -5 -20 -16
-45 -25 -25 -10 -45 -20 -45 -22 0 -2 25 -65 55 -139 30 -75 55 -143 55 -153
0 -9 -19 12 -42 48 -64 98 -173 203 -232 223 -44 15 -55 15 -114 2 -108 -25
-342 -156 -342 -192 0 -18 37 -15 189 17 111 23 157 18 145 -15 -3 -8 -10 -15
-15 -15 -25 0 -3 -22 47 -47 31 -15 87 -56 125 -91 72 -66 93 -101 37 -59 -81
61 -293 136 -488 173 -142 27 -177 -1 -292 -231 l-73 -147 -3 -131 c-4 -176
23 -374 103 -762 38 -182 54 -262 74 -370 6 -33 15 -76 21 -95 5 -19 19 -80
31 -135 12 -55 39 -167 60 -250 35 -138 48 -185 78 -287 48 -158 207 -319 377
-379 209 -74 745 88 1123 340 98 65 229 145 411 251 136 79 172 105 389 279
141 113 144 115 207 123 68 8 157 -4 181 -23 53 -45 -35 -182 -511 -793 -469
-601 -468 -599 -232 -484 56 27 144 72 196 99 279 145 581 290 616 296 l39 6
-25 -27 c-40 -44 -173 -128 -391 -246 -112 -61 -215 -121 -228 -134 -44 -45
-10 -55 117 -36 341 51 492 62 492 36 0 -18 -101 -102 -211 -177 -131 -88
-316 -177 -443 -214 l-58 -17 -47 25 c-73 40 -153 69 -176 63 -11 -3 -38 -32
-59 -66 -21 -33 -44 -60 -51 -60 -26 0 -171 21 -216 31 l-45 10 -12 137 c-7
75 -12 160 -12 187 0 28 -4 55 -8 61 -12 19 -70 44 -101 44 -41 0 -45 -17 -43
-204 1 -87 -1 -162 -3 -167 -3 -4 -22 -2 -43 5 -32 11 -37 18 -40 47 -4 53
-32 180 -49 224 -17 48 -50 85 -74 85 -36 0 -43 -27 -41 -151 1 -88 -2 -119
-11 -119 -6 0 -63 25 -125 55 l-112 54 2 98 c4 118 -9 128 -59 43 -18 -30 -36
-62 -41 -70 -13 -21 -182 65 -352 178 -156 105 -198 137 -188 147 7 7 98 -5
293 -40 44 -8 134 -23 200 -35 378 -67 557 -89 585 -70 39 26 -45 77 -185 111
-78 20 -119 23 -310 24 l-220 1 -229 58 c-126 31 -235 55 -242 52 -8 -3 -19
-18 -24 -33 -6 -16 -14 -37 -19 -48 -49 -110 -83 -258 -121 -525 -33 -227 -65
-458 -89 -635 -41 -303 -51 -370 -57 -392 -4 -14 4 -39 21 -72 32 -58 160
-201 180 -201 8 0 32 30 53 68 22 37 83 144 137 237 54 94 105 182 114 197 9
16 20 28 24 28 5 0 6 -4 3 -9 -8 -12 -75 -222 -92 -288 -8 -29 -21 -79 -30
-110 -21 -80 -34 -182 -27 -216 9 -44 42 -56 321 -117 420 -92 917 -171 1100
-173 98 -2 103 -3 97 -22 -3 -11 -9 -37 -12 -58 -5 -30 -11 -38 -32 -42 -78
-15 -156 -38 -178 -52 -34 -23 -96 -106 -198 -270 -49 -79 -96 -145 -103 -148
-22 -8 -4 74 44 214 47 134 54 193 26 227 -17 22 -72 54 -92 54 -6 0 -77 32
-158 71 -291 141 -393 171 -466 137 -55 -24 -76 -100 -100 -348 -18 -189 -24
-202 -63 -128 -34 68 -46 98 -156 385 -107 279 -129 327 -150 320 -7 -2 -15
-32 -18 -68 -4 -35 -19 -163 -33 -284 -31 -253 -49 -755 -28 -755 9 0 12 56
12 203 0 128 7 273 20 397 28 279 48 439 56 451 10 18 27 -17 99 -206 148
-390 195 -499 220 -509 29 -11 44 29 55 140 26 275 43 353 86 381 19 12 39 14
87 10 70 -7 165 -43 377 -145 80 -38 162 -75 182 -82 46 -14 68 -43 68 -87 0
-18 -20 -93 -45 -168 -65 -193 -71 -267 -17 -234 11 7 66 86 122 176 121 194
173 255 228 271 67 20 132 30 138 21 3 -5 0 -44 -6 -86 -5 -43 -15 -139 -20
-213 -6 -74 -13 -158 -16 -187 -4 -29 -4 -64 0 -78 12 -49 26 -13 26 69 0 72
4 91 31 144 38 78 85 118 213 183 126 64 221 131 241 169 13 26 13 30 -2 45
-14 15 -33 16 -152 10 -75 -4 -165 -11 -200 -15 -36 -5 -68 -7 -73 -4 -14 9 2
75 30 127 52 98 144 153 390 236 75 25 138 52 140 59 5 17 -84 16 -223 -3 -60
-8 -121 -15 -134 -15 -46 0 -17 21 174 125 91 50 239 138 283 167 83 57 41 73
-113 42 -82 -16 -347 -25 -361 -12 -8 9 15 156 26 163 4 3 10 -13 14 -34 10
-65 20 -67 154 -37 236 52 500 138 503 163 4 30 8 72 14 175 4 65 10 116 14
113 5 -2 11 -163 14 -357 6 -357 20 -501 50 -520 6 -5 22 -6 33 -3 12 3 26 -1
32 -8 5 -6 16 -68 24 -137 11 -100 11 -140 2 -196 -21 -125 -69 -260 -168
-477 -20 -44 -36 -81 -36 -83 0 -2 -13 -32 -30 -66 -32 -65 -37 -88 -20 -88
28 0 188 287 243 435 63 168 72 224 72 444 l0 203 95 42 c52 24 123 57 157 74
34 18 64 32 66 32 2 0 7 -206 10 -457 9 -616 16 -763 35 -763 10 0 12 7 8 25
-11 44 -26 539 -26 879 l0 330 65 60 c72 67 76 77 94 236 36 301 38 536 9 705
-22 124 -33 149 -61 142 -12 -4 -34 -9 -49 -13 l-28 -6 0 204 c0 200 1 207 30
299 17 52 35 111 41 132 5 21 26 72 46 115 19 42 49 106 65 142 144 310 257
601 273 696 9 60 38 101 79 112 124 35 277 222 421 517 76 155 118 272 154
435 29 129 31 123 -30 115 l-52 -7 7 33 c3 18 8 35 11 37 2 3 24 -1 49 -7 91
-23 103 -2 29 49 -35 23 -41 30 -23 26 138 -31 132 -31 146 -11 9 11 14 47 15
89 0 39 6 93 12 121 10 41 20 55 57 82 95 69 88 60 61 83 -16 14 -38 20 -72
20 -36 0 -55 6 -76 24 -26 23 -28 30 -31 113 -5 150 -11 157 -92 98 -148 -108
-168 -237 -61 -385 17 -24 31 -50 31 -57 0 -35 -32 -123 -45 -123 -8 0 -48 16
-90 36 -41 20 -80 34 -87 32 -6 -2 30 -31 80 -63 86 -55 105 -76 83 -89 -12
-8 -223 67 -276 97 -52 29 -75 69 -57 98 20 32 3 38 -22 7 -12 -16 -25 -28
-29 -28 -14 0 13 39 67 100 60 67 70 97 102 294 15 96 16 122 5 230 -15 139
-12 157 50 303 72 169 95 199 212 274 93 60 173 99 204 99 17 0 25 -9 34 -38
15 -52 -5 -89 -75 -141 -53 -39 -113 -111 -137 -163 -10 -22 -9 -31 1 -43 13
-16 30 -15 77 2 10 3 -8 -19 -40 -49 -31 -31 -57 -63 -57 -71 0 -7 9 -22 20
-32 16 -14 31 -16 82 -12 35 3 73 8 86 12 35 12 25 -7 -27 -48 -26 -21 -54
-49 -62 -63 -31 -59 57 -67 189 -17 36 13 66 22 68 20 2 -2 -16 -22 -41 -45
-25 -22 -50 -53 -57 -67 -11 -24 -10 -29 7 -41 27 -20 120 -17 220 6 47 11 94
20 104 20 20 0 47 -52 36 -69 -4 -7 -42 -10 -99 -8 -111 2 -137 -8 -167 -70
-11 -24 -25 -41 -30 -38 -4 3 -27 33 -50 65 -42 60 -59 73 -59 45 0 -43 121
-237 157 -254 33 -15 51 -14 102 10 96 43 171 129 171 195 0 15 7 35 16 45 43
48 38 261 -8 293 -16 11 -18 18 -9 34 26 50 4 131 -48 174 l-31 27 21 20 c53
49 -1 127 -90 133 l-46 3 3 41 c2 29 -3 48 -17 65 -17 21 -27 24 -89 24 l-70
0 -53 60 c-28 33 -77 89 -108 124 -31 34 -57 66 -59 71 -1 4 29 37 69 74 126
117 129 122 129 241 l0 102 213 200 c116 110 241 227 277 260 205 188 256 237
262 248 4 6 5 28 1 48 -5 35 -8 37 -43 37 -35 0 -61 -22 -423 -350 l-387 -350
-87 2 -88 3 -126 -88 c-78 -54 -156 -119 -202 -168 -85 -89 -100 -125 -73
-178 19 -35 180 -201 278 -286 l68 -57 -17 -28 c-9 -16 -27 -34 -41 -41 -21
-12 -30 -10 -77 15 -101 52 -241 168 -286 235 -29 43 -31 51 -26 113 3 36 13
80 21 97 30 57 13 56 -73 -8 -36 -27 -97 -69 -136 -94 -134 -86 -895 -862
-895 -913 0 -6 -6 -17 -14 -23 -11 -9 -15 3 -25 66 -14 89 -42 154 -77 182
-15 12 -57 24 -109 32 -74 11 -89 10 -127 -4 -34 -13 -79 -17 -208 -17 l-165
0 -1 64 -2 63 60 7 c83 8 178 56 221 109 63 79 166 269 222 412 l28 70 -12
125 c-16 181 -14 326 9 481 29 199 28 234 -1 266 -32 35 -144 86 -249 114
-138 36 -308 28 -660 -31 -63 -11 -135 -24 -160 -30 -379 -85 -453 -112 -633
-234 -48 -32 -90 -57 -93 -54 -3 3 8 33 25 65 29 59 30 60 108 87 43 16 92 34
110 42 17 8 36 14 42 14 6 0 25 7 43 14 54 24 278 103 353 124 142 41 332 74
525 92 63 6 185 18 270 26 272 27 291 27 420 9 143 -19 200 -42 200 -80 0 -46
-64 -86 -194 -120 -22 -5 -42 -16 -44 -24 -5 -15 -4 -15 138 30 220 70 273
108 216 154 -58 46 -290 101 -466 110 -227 12 -686 -20 -880 -61 -146 -31
-429 -124 -639 -210 -46 -19 -86 -32 -89 -29 -3 3 19 29 49 58 58 57 157 102
364 167 55 18 109 36 120 41 30 13 272 76 338 88 32 6 61 12 65 15 4 2 71 12
149 21 133 16 153 16 282 1 77 -9 150 -20 163 -25 37 -14 134 -41 148 -41 21
0 5 64 -53 210 -77 193 -91 217 -175 298 -64 62 -80 73 -104 70 -16 -3 -29 1
-32 8 -8 20 -123 70 -216 94 -96 24 -307 35 -400 20z m331 -26 c90 -17 186
-47 234 -74 33 -18 83 -102 129 -218 16 -40 35 -81 43 -90 30 -40 11 32 -32
123 -49 103 -63 145 -47 145 10 0 104 -80 134 -115 23 -25 65 -114 112 -235
21 -52 41 -102 45 -110 5 -9 12 -30 15 -48 l7 -31 -48 15 c-231 72 -516 73
-808 1 -163 -40 -359 -99 -485 -145 -52 -19 -112 -41 -133 -48 -104 -38 -170
-88 -223 -169 -14 -22 -99 -75 -120 -75 -9 0 5 121 22 200 42 185 120 339 248
488 51 60 140 139 174 155 25 11 28 23 10 30 -19 6 74 50 193 91 126 43 202
47 337 16 227 -50 291 -97 321 -232 6 -25 13 -52 17 -61 3 -9 2 -17 -3 -17 -5
0 -29 39 -53 86 -80 154 -158 190 -415 188 -166 -1 -235 -13 -330 -56 -36 -16
-37 -18 -10 -14 17 3 64 14 105 26 104 29 310 37 405 17 39 -9 91 -25 117 -37
50 -22 51 -23 156 -220 22 -41 47 -76 55 -78 13 -3 13 5 1 65 -23 109 -53 194
-79 229 -49 64 -235 128 -406 141 -96 6 -152 -4 -264 -48 -38 -15 -81 -30 -95
-34 -24 -7 -24 -6 -5 8 36 26 129 73 190 95 139 51 331 66 486 36z m734 -732
c16 -9 -14 -12 -145 -12 -91 0 -198 -5 -238 -10 -40 -5 -130 -14 -200 -20
-247 -19 -480 -57 -648 -105 -78 -23 -422 -144 -551 -196 -28 -11 -38 4 -15
23 21 18 60 36 182 83 52 20 104 41 115 46 11 5 94 33 185 63 263 86 361 105
730 136 141 12 561 7 585 -8z m2691 -58 c5 -20 1 -31 -17 -48 -13 -13 -123
-115 -244 -226 -121 -112 -251 -234 -290 -271 -38 -37 -98 -94 -131 -126 -34
-32 -67 -68 -73 -80 -6 -12 -11 -66 -11 -120 l0 -98 -102 -98 c-59 -56 -99
-100 -93 -105 20 -14 155 -170 155 -179 0 -4 -21 -17 -48 -27 -57 -24 -192
-106 -248 -152 -46 -37 -92 -117 -149 -261 l-36 -87 3 -196 c2 -172 0 -208
-21 -305 -27 -126 -36 -147 -86 -195 -52 -50 -78 -96 -71 -124 4 -17 -4 -37
-29 -72 -19 -27 -53 -77 -77 -111 -24 -34 -46 -63 -49 -63 -4 0 -10 66 -14
148 -10 226 -33 282 -112 282 -54 0 -64 18 -37 69 20 38 191 241 202 241 16 0
221 207 231 232 15 40 24 168 17 230 -7 55 -7 55 -89 114 -77 56 -85 65 -131
154 -55 107 -75 143 -124 218 -60 91 -79 67 -93 -117 l-10 -128 90 -170 c50
-94 91 -175 91 -181 0 -12 -56 -36 -68 -29 -4 3 -50 69 -102 146 -52 78 -100
141 -107 141 -19 0 -140 -126 -296 -308 -195 -228 -257 -311 -257 -347 1 -35
20 -65 43 -65 9 0 105 87 214 193 209 204 276 267 287 267 17 0 47 -87 52
-153 8 -87 1 -104 -93 -225 -83 -106 -117 -145 -282 -325 -122 -134 -137 -147
-148 -131 -7 10 -13 27 -13 38 0 31 -70 307 -86 337 -7 15 -47 61 -89 102 -72
72 -87 98 -65 112 6 4 19 24 30 44 30 59 185 226 515 556 298 298 323 320 522
448 10 6 11 -10 6 -71 -7 -92 2 -113 73 -185 111 -113 264 -217 318 -217 28 0
72 40 87 80 9 22 6 29 -23 54 -112 97 -237 218 -279 268 -64 77 -64 100 -1
169 75 82 82 88 177 159 175 131 204 142 299 120 47 -10 42 -14 172 106 54 50
224 204 377 343 291 263 319 281 333 225z m-2427 -17 c25 -12 47 -27 49 -34 3
-12 -66 -53 -88 -53 -8 0 -9 11 -5 30 5 24 1 35 -26 61 l-33 32 29 -7 c16 -4
49 -17 74 -29z m-705 -88 c162 -30 295 -87 330 -141 12 -18 13 -36 6 -88 -5
-36 -14 -103 -20 -150 -5 -47 -15 -109 -21 -139 -8 -39 -8 -90 0 -185 23 -273
23 -269 6 -321 -21 -64 -106 -242 -153 -320 -86 -146 -140 -186 -283 -211 -69
-12 -98 -13 -116 -5 -13 6 -56 14 -96 17 -49 5 -88 15 -122 33 -65 34 -279
247 -330 329 -22 34 -53 84 -70 110 -38 60 -60 63 -114 17 -24 -19 -49 -35
-56 -35 -7 0 -23 -9 -37 -20 -21 -16 -26 -31 -31 -87 -7 -69 -56 -278 -76
-323 -12 -26 -11 36 5 309 7 103 6 109 -16 131 -26 26 -21 32 48 55 28 9 52
21 52 27 0 5 -11 42 -24 81 -42 124 -68 239 -73 329 -5 76 -3 90 16 121 12 19
32 42 46 51 32 21 88 21 108 -1 8 -10 32 -67 52 -128 52 -156 69 -161 86 -24
18 142 23 154 79 188 34 21 62 50 86 88 20 32 53 82 72 112 21 32 36 69 37 90
l3 36 138 21 c272 43 375 50 468 33z m-630 -97 c6 -10 -105 -195 -138 -230
-11 -13 -38 -33 -59 -45 -49 -27 -64 -63 -73 -172 -6 -70 -9 -83 -20 -74 -8 6
-14 19 -14 28 -1 23 -46 148 -64 176 -43 66 -157 32 -205 -62 -15 -30 -14
-135 3 -213 17 -78 51 -206 66 -244 18 -49 13 -61 -37 -79 -25 -9 -47 -16 -48
-15 -7 9 -59 184 -94 318 -23 85 -46 169 -51 186 -21 65 -14 87 48 145 130
123 257 194 432 241 148 40 245 55 254 40z m-450 -88 c-90 -48 -188 -118 -251
-180 -50 -49 -63 -68 -63 -92 0 -27 37 -185 61 -257 22 -68 59 -208 59 -223 0
-46 -152 238 -175 326 -8 34 -17 99 -18 143 l-2 81 100 69 c133 93 258 153
324 158 8 1 -8 -11 -35 -25z m-324 -4 c0 -11 -62 -40 -70 -33 -7 6 42 43 58
43 6 0 12 -4 12 -10z m-60 -55 c25 8 25 3 1 -49 -11 -23 -22 -52 -25 -66 -5
-27 -59 -65 -76 -55 -6 3 -10 28 -10 54 0 38 7 57 31 90 24 34 33 40 44 31 8
-6 23 -9 35 -5z m2927 -952 c46 -76 63 -106 117 -209 32 -62 48 -79 116 -128
43 -31 81 -64 84 -72 9 -24 7 -174 -4 -218 -12 -54 -29 -75 -161 -196 -122
-112 -247 -250 -281 -311 l-21 -38 -19 25 c-11 13 -28 24 -39 24 -29 0 -133
-51 -224 -111 -126 -82 -144 -116 -57 -103 l47 6 -89 -53 c-49 -30 -112 -76
-140 -104 -47 -46 -59 -70 -146 -274 -62 -147 -105 -235 -125 -256 -31 -33
-133 -91 -142 -81 -3 3 28 43 69 88 114 128 150 175 146 195 -6 28 -30 19
-211 -84 -259 -146 -357 -192 -357 -167 0 20 144 110 335 209 219 114 239 129
251 192 6 33 -7 198 -26 318 -5 33 -16 112 -25 175 -8 63 -20 152 -26 198 -6
46 -9 86 -5 89 10 10 125 -116 140 -152 11 -27 24 -79 83 -337 9 -38 18 -68
20 -68 6 0 61 57 198 205 141 153 244 275 306 363 43 62 44 65 43 140 -1 87
-16 149 -43 183 -16 20 -22 22 -42 12 -13 -6 -117 -102 -232 -213 -246 -240
-256 -248 -268 -229 -18 29 -7 59 48 130 162 211 446 529 471 529 11 0 52 -55
112 -145 52 -80 99 -145 103 -145 5 0 29 12 53 26 30 18 43 31 40 41 -3 8 -46
89 -96 180 -99 183 -99 183 -80 330 17 128 20 129 77 36z m1089 -148 c28 -18
30 -44 9 -85 l-16 -30 31 0 c124 0 206 -86 114 -120 -32 -13 -30 -26 5 -45 51
-26 83 -77 79 -127 -3 -43 -3 -43 -47 -48 -35 -4 -41 -7 -30 -16 8 -7 29 -15
47 -19 18 -4 39 -16 47 -28 21 -34 26 -237 5 -237 -5 0 -16 16 -24 35 -13 30
-20 35 -48 35 -18 0 -55 -7 -82 -15 -95 -29 -236 -32 -236 -5 0 16 72 83 143
134 37 26 67 52 67 57 0 14 -27 11 -60 -6 -123 -63 -289 -111 -304 -86 -9 14
40 63 142 140 45 34 82 66 82 71 0 14 -22 12 -45 -4 -67 -45 -220 -83 -254
-62 -39 25 10 75 173 178 55 35 101 69 104 76 6 20 -30 14 -78 -13 -106 -58
-193 -96 -201 -88 -20 20 53 118 134 180 57 44 87 85 87 120 0 15 10 18 66 21
47 2 73 -1 90 -13z m-3091 -230 c109 -87 186 -125 258 -125 44 0 55 -3 51 -14
-3 -7 17 -43 44 -78 80 -105 113 -184 114 -267 1 -127 -38 -156 -212 -155
-120 0 -227 17 -383 60 -289 80 -464 159 -540 244 -51 56 -48 72 16 95 62 22
72 22 129 -3 234 -105 252 -93 174 119 -25 67 -44 125 -41 127 3 3 76 -64 163
-149 86 -86 186 -176 222 -201 137 -95 251 -133 265 -89 13 41 -48 129 -263
386 -65 78 -93 115 -86 115 5 0 45 -29 89 -65z m925 -154 c59 -27 86 -102 105
-286 2 -16 8 -59 14 -95 10 -61 33 -224 67 -490 8 -63 18 -150 21 -192 5 -72
4 -80 -19 -110 -17 -22 -65 -54 -139 -92 -303 -157 -439 -244 -439 -281 0 -52
98 -11 432 181 72 41 133 73 136 70 3 -3 -7 -23 -22 -44 -39 -57 -274 -301
-305 -316 -37 -20 -253 -91 -395 -131 -66 -19 -159 -48 -206 -65 -192 -70
-404 -138 -549 -176 -62 -17 -171 -30 -171 -21 0 12 106 173 125 189 23 20
181 91 330 150 55 21 109 43 120 48 11 5 81 34 155 66 174 73 304 139 358 181
106 86 15 84 -278 -4 -135 -40 -534 -171 -669 -219 -52 -19 -100 -34 -107 -34
-26 0 -37 63 -65 380 -15 170 -50 274 -300 898 -38 95 -69 177 -69 182 0 4 21
16 47 26 l46 18 69 -74 c80 -85 148 -171 172 -218 29 -56 56 -159 101 -377 83
-407 154 -555 266 -555 35 0 222 33 359 64 236 52 381 86 560 131 33 8 86 21
118 29 31 7 70 19 86 25 l29 12 -7 184 c-13 385 -34 503 -121 705 -36 82 -65
153 -65 158 0 5 11 19 25 32 28 26 33 50 10 50 -18 0 -20 16 -2 23 24 9 142
-5 177 -22z m-251 -23 c7 -17 5 -26 -5 -34 -23 -18 -134 -26 -188 -14 -49 11
-106 43 -106 61 0 5 62 9 145 9 142 0 146 -1 154 -22z m61 -3 c0 -8 -9 -15
-20 -15 -11 0 -20 7 -20 15 0 8 9 15 20 15 11 0 20 -7 20 -15z m-1489 -46 c13
-26 8 -31 -53 -54 l-47 -17 -42 33 -42 33 34 12 c19 7 57 13 86 13 43 1 54 -3
64 -20z m1324 -25 c33 3 75 9 93 12 19 4 32 2 32 -4 0 -6 16 -44 34 -85 49
-105 82 -188 100 -249 27 -93 58 -442 54 -598 l-3 -104 -215 -54 c-474 -117
-823 -191 -905 -192 -53 0 -90 32 -129 112 -47 94 -73 189 -127 453 -29 146
-59 266 -75 302 -8 17 -14 36 -14 41 0 15 -108 155 -179 232 -65 70 -65 78 -4
98 30 10 33 9 53 -24 61 -98 213 -176 545 -277 240 -73 498 -92 591 -44 41 21
51 35 63 89 15 66 -2 148 -50 236 -21 41 -39 77 -39 81 0 5 26 0 58 -11 43
-15 72 -18 117 -14z m-1635 -2 c-67 -34 -167 -72 -186 -72 -33 0 -9 31 44 56
76 36 98 42 152 43 l45 0 -55 -27z m-64 -142 c36 -14 161 -141 206 -210 118
-183 160 -308 217 -645 47 -281 73 -555 52 -555 -5 0 -64 111 -131 247 -136
278 -185 363 -207 363 -13 0 -15 -9 -11 -47 5 -55 35 -121 120 -269 138 -241
263 -635 216 -682 -23 -23 -70 -12 -261 64 -224 89 -256 99 -269 86 -23 -23
125 -101 287 -152 86 -27 136 -53 133 -69 -2 -8 -37 -33 -78 -54 -182 -95
-348 -247 -270 -247 22 0 120 46 261 123 47 26 91 47 97 47 13 0 -1 -37 -54
-145 -19 -39 -34 -81 -34 -94 0 -13 -26 -71 -58 -130 -92 -170 -111 -221 -87
-245 29 -28 123 5 399 141 141 71 190 85 136 42 -14 -11 -95 -72 -180 -136
-238 -177 -287 -233 -204 -233 39 0 143 27 159 41 5 5 15 9 23 9 15 0 222 102
327 160 33 18 177 103 320 189 143 85 319 185 392 221 164 84 443 179 443 152
0 -6 -35 -39 -77 -74 -152 -126 -280 -216 -427 -302 -82 -48 -203 -121 -270
-163 -251 -158 -280 -175 -379 -222 -268 -127 -527 -201 -707 -201 -73 0 -99
5 -158 28 -87 36 -178 105 -235 180 -74 95 -86 126 -157 382 -17 58 -61 240
-77 310 -30 139 -84 397 -93 445 -5 28 -18 93 -30 145 -23 108 -59 304 -86
460 -12 72 -18 161 -18 285 l-1 180 70 134 c38 73 87 153 108 177 37 43 41 44
97 44 105 0 336 -64 477 -133 61 -29 133 -96 209 -192 51 -65 50 -33 -2 57
-55 94 -159 204 -247 262 -46 30 -57 41 -52 57 17 53 -69 64 -220 28 -125 -29
-124 -18 4 57 149 86 251 112 327 84z m3904 -210 c0 -63 5 -100 16 -121 17
-34 66 -59 116 -59 32 0 68 -15 58 -23 -3 -2 -26 -18 -52 -36 -27 -18 -54 -45
-62 -60 -8 -15 -18 -73 -22 -129 -4 -55 -10 -106 -15 -113 -6 -10 -21 -9 -73
5 -37 10 -68 22 -71 26 -3 5 2 37 10 72 19 83 20 78 -19 136 -83 120 -87 195
-17 291 25 34 107 101 122 101 5 0 9 -41 9 -90z m466 30 c62 0 64 -1 64 -25 0
-56 -72 -139 -154 -176 -70 -32 -93 -24 -140 45 -30 45 -34 67 -8 43 26 -24
29 -22 37 21 3 20 14 48 24 60 17 24 74 44 99 36 8 -2 43 -4 78 -4z m-1427
-203 c6 -8 14 -28 17 -45 6 -29 4 -31 -37 -42 -24 -6 -82 -22 -129 -35 -118
-33 -165 -41 -156 -27 19 31 243 161 277 162 9 0 22 -6 28 -13z m156 -87 c22
-24 14 -36 -13 -21 -12 6 -33 11 -49 12 l-28 1 30 13 c39 18 39 18 60 -5z m0
-56 c20 -26 18 -63 -4 -99 -15 -25 -37 -36 -132 -69 -144 -49 -219 -82 -219
-95 0 -6 12 -11 28 -11 28 0 48 5 172 40 88 25 116 17 126 -36 11 -60 5 -67
-79 -93 -81 -26 -103 -47 -39 -37 90 13 148 16 161 7 7 -5 16 -32 19 -59 4
-50 4 -51 -29 -65 -19 -7 -64 -22 -101 -32 -38 -10 -68 -22 -68 -26 0 -13 18
-11 74 6 65 20 125 20 132 0 11 -28 -7 -88 -35 -115 -20 -21 -48 -32 -107 -45
-118 -26 -105 -12 -161 -177 -13 -36 -14 -57 -7 -85 9 -36 11 -38 54 -41 l45
-4 83 -169 c47 -97 82 -181 82 -198 0 -66 -97 -79 -199 -29 -52 26 -51 23 -70
203 -14 121 -32 235 -39 235 -14 0 -225 -118 -285 -158 -89 -61 -99 -66 -184
-91 -46 -14 -88 -35 -121 -61 -27 -22 -56 -40 -64 -40 -21 0 -65 49 -83 95
-23 53 -65 277 -65 342 l0 53 48 20 c179 79 190 93 310 386 27 67 62 145 78
175 56 103 214 202 414 258 134 38 145 40 203 37 33 -2 52 -9 62 -22z m-2643
-201 c52 -143 74 -243 83 -383 7 -117 33 -298 46 -322 5 -10 16 -18 24 -18 8
0 168 51 357 114 488 162 639 207 701 206 20 -1 19 -4 -13 -31 -52 -45 -263
-144 -558 -263 -410 -165 -396 -157 -498 -320 -39 -63 -57 -82 -89 -96 -36
-15 -88 -63 -112 -103 -15 -25 -339 -197 -370 -197 -43 1 140 141 273 209 90
45 96 56 55 93 l-34 30 34 -8 c19 -5 52 -8 74 -9 34 0 42 4 54 29 34 71 -69
414 -190 632 -69 125 -136 264 -144 298 -15 71 33 -11 170 -289 79 -161 148
-296 154 -299 23 -15 34 37 27 136 -14 203 -70 585 -102 696 -3 12 -2 22 3 22
4 0 29 -57 55 -127z m2690 45 c2 -40 3 -106 3 -147 0 -108 12 -107 100 14 32
44 68 94 81 111 l23 31 69 -68 c84 -82 182 -147 234 -155 21 -4 41 -10 43 -15
5 -7 -20 -92 -44 -151 -6 -12 -26 -65 -46 -116 -74 -193 -141 -312 -176 -312
-19 0 -41 34 -65 104 -27 76 -48 116 -60 116 -30 0 -29 -201 1 -355 l14 -70
-34 -55 c-18 -30 -38 -56 -43 -58 -8 -2 -162 286 -162 304 0 2 19 13 43 25
107 54 142 110 118 189 -17 58 -43 68 -92 34 -46 -32 -115 -105 -130 -138 -9
-18 -7 -31 6 -56 16 -32 16 -34 -1 -47 -26 -19 -83 -28 -97 -14 -16 16 -24 14
-30 -9 -5 -21 -31 -27 -42 -10 -11 17 -10 88 2 112 6 13 18 44 28 70 15 44 20
49 68 63 28 8 59 15 69 15 35 0 95 39 117 75 24 42 28 107 6 125 -12 10 -12
15 2 37 15 23 15 28 -1 79 -13 41 -23 55 -41 60 -22 5 -23 9 -18 57 4 44 1 57
-18 81 -22 27 -25 28 -91 24 -37 -3 -68 -4 -68 -3 0 2 23 11 137 51 27 10 49
27 60 45 10 16 21 29 25 29 4 0 9 -33 10 -72z m271 8 c34 -32 125 -73 252
-113 27 -9 54 -19 59 -24 9 -8 2 -45 -12 -67 -14 -21 -86 3 -162 53 -66 44
-180 154 -180 174 0 16 4 14 43 -23z m407 -128 c0 -10 -12 -10 -34 -2 -9 3
-16 12 -16 20 0 11 5 11 25 2 14 -6 25 -15 25 -20z m-7 -105 c3 -5 -6 -51 -19
-103 -13 -52 -24 -103 -24 -112 0 -29 -81 -226 -143 -347 -110 -218 -250 -397
-349 -447 -60 -31 -75 -31 -56 -1 8 12 18 35 22 51 4 16 26 56 48 88 l41 58
-7 84 c-4 46 -11 99 -16 118 -13 42 -13 195 -1 202 5 3 12 -6 16 -21 3 -15 22
-60 40 -100 29 -63 37 -73 60 -73 15 0 36 11 51 27 39 42 108 189 182 388 64
171 68 180 97 186 44 10 53 10 58 2z m-588 -423 c0 -37 -5 -54 -23 -73 -22
-23 -114 -77 -131 -77 -4 0 -15 16 -25 36 l-17 37 39 46 c21 25 58 61 82 79
39 30 44 32 59 17 10 -10 16 -33 16 -65z m-1254 -197 c36 -229 60 -299 114
-341 14 -11 25 -22 25 -25 0 -3 -22 -24 -50 -47 -43 -36 -65 -45 -167 -71
-240 -60 -382 -127 -778 -363 -478 -286 -742 -414 -831 -404 l-29 3 30 29 c17
16 107 86 200 156 164 123 245 193 245 213 0 20 -65 -5 -247 -94 -186 -91
-300 -139 -329 -139 -30 0 -25 31 19 124 48 101 205 370 312 536 71 108 83
118 170 127 68 7 331 81 490 138 123 44 314 106 435 142 129 38 341 112 354
124 15 14 18 5 37 -108z m1171 -149 l82 -166 -43 -40 c-51 -48 -65 -41 -75 33
-7 55 -55 157 -113 246 -20 29 -33 56 -29 60 8 8 65 30 83 32 7 0 50 -74 95
-165z m-360 65 c35 -247 36 -299 9 -299 -28 0 -36 -14 -84 -160 -79 -236 -138
-479 -151 -621 -13 -139 -31 -232 -45 -237 -12 -4 -13 12 -8 89 4 52 11 213
17 359 5 146 15 369 21 497 7 127 9 239 6 248 -5 12 -15 15 -44 10 l-38 -6 32
28 c39 33 254 154 268 149 6 -1 13 -27 17 -57z m-2667 -112 c81 -31 130 -57
107 -57 -23 0 -188 66 -217 87 -19 14 -19 15 5 8 14 -4 61 -21 105 -38z m2925
1 c7 -18 15 -36 18 -40 2 -5 -1 -8 -6 -8 -6 0 -16 15 -23 33 -7 17 -14 35 -17
40 -2 4 0 7 5 7 5 0 15 -15 23 -32z m-515 -140 c-3 -62 -10 -234 -16 -383 -9
-243 -27 -676 -29 -682 0 -2 -20 -3 -44 -3 l-44 0 -15 -87 c-9 -49 -19 -115
-23 -148 -12 -104 -8 -101 -126 -108 -56 -4 -164 -15 -238 -26 -204 -29 -250
-34 -250 -23 0 15 15 24 228 141 236 129 329 188 383 242 42 42 47 56 24 65
-28 11 -171 -50 -415 -177 -296 -153 -560 -282 -566 -276 -10 9 29 67 161 236
67 86 193 248 281 361 279 359 406 536 444 623 38 87 -8 129 -142 130 -43 0
-78 4 -78 8 0 3 17 19 37 35 29 22 45 27 81 25 50 -2 64 5 164 86 70 57 100
71 156 72 l33 1 -6 -112z m-2258 76 c-3 -3 -12 -4 -19 -1 -8 3 -5 6 6 6 11 1
17 -2 13 -5z m2062 -20 c-54 -57 -159 -107 -159 -76 0 15 81 75 119 88 57 21
68 17 40 -12z m-1844 -108 c-15 -25 -31 -48 -35 -51 -15 -9 -22 33 -9 53 12
19 61 54 67 47 2 -2 -8 -24 -23 -49z m2325 -31 c8 -10 17 -76 23 -178 10 -154
9 -171 -17 -347 -16 -102 -34 -228 -42 -280 -15 -106 -21 -127 -95 -355 -28
-88 -57 -181 -65 -207 -27 -94 -42 -145 -79 -268 -21 -69 -43 -142 -49 -164
-9 -31 -19 -42 -58 -62 -81 -41 -80 -45 -28 126 98 320 143 469 152 500 5 19
23 76 39 125 16 50 29 96 29 103 0 7 -14 12 -35 12 -40 0 -41 5 -25 125 6 39
15 108 20 155 19 147 77 383 147 590 51 149 56 157 83 125z m361 -26 c-76
-277 -126 -406 -299 -784 -27 -60 -62 -136 -76 -167 -14 -31 -26 -63 -26 -72
0 -8 -4 -18 -10 -21 -5 -3 -10 -16 -10 -27 0 -12 -3 -19 -6 -16 -9 10 26 168
53 238 31 79 57 134 106 222 59 105 126 282 163 428 19 74 34 147 34 162 0 17
9 33 23 43 26 18 54 15 48 -6z m-249 -20 c38 -15 68 -20 106 -17 l52 5 -5 -31
c-35 -203 -92 -367 -198 -567 -39 -76 -73 -136 -75 -135 -3 4 21 190 39 291 5
33 9 153 7 268 -2 157 0 207 9 207 7 0 36 -9 65 -21z m-2536 -78 c-31 -49 -43
-54 -20 -8 20 39 35 59 41 53 3 -2 -7 -23 -21 -45z m2089 -1018 c0 -124 6
-168 19 -126 11 39 36 173 36 197 0 40 11 56 36 56 28 0 30 -12 10 -72 -8 -24
-19 -59 -24 -78 -6 -19 -20 -66 -32 -105 -23 -76 -42 -138 -64 -212 -8 -27
-32 -106 -54 -178 -61 -197 -74 -247 -67 -253 3 -3 20 0 38 7 51 21 77 25 77
11 0 -17 -64 -205 -107 -315 -94 -240 -107 -307 -107 -570 -1 -193 -3 -220
-17 -223 -9 -1 -21 3 -27 11 -24 29 -35 217 -36 617 l-1 405 47 15 c59 19 60
21 68 78 16 111 71 459 76 482 3 14 11 68 19 120 26 177 37 245 41 258 2 8 16
12 36 10 l33 -3 0 -132z m45 111 c0 -8 -4 -12 -10 -9 -5 3 -10 10 -10 16 0 5
5 9 10 9 6 0 10 -7 10 -16z m-2741 -30 c173 -46 165 -43 158 -50 -3 -3 -47 1
-98 10 -118 20 -169 21 -169 2 0 -36 324 -255 494 -334 54 -25 67 -36 63 -50
-3 -9 -21 -60 -39 -112 -53 -145 -64 -209 -48 -278 18 -82 50 -188 76 -253 12
-31 19 -62 15 -67 -4 -7 -49 -12 -106 -14 -86 -3 -109 0 -163 21 -34 13 -67
31 -72 41 -5 9 -16 79 -24 156 -44 394 -89 631 -134 708 -50 85 -119 -7 -162
-214 -78 -379 -145 -1127 -111 -1242 7 -22 17 -38 24 -35 6 2 47 59 89 128 43
68 122 193 174 277 53 83 98 152 100 152 2 0 23 -18 46 -39 24 -22 54 -48 68
-59 l24 -20 -38 -123 c-96 -312 -146 -503 -146 -561 0 -43 -8 -46 -65 -22
l-38 15 6 87 c5 92 37 221 107 432 76 229 79 240 66 240 -6 0 -24 -21 -40 -47
-40 -66 -222 -379 -282 -485 -27 -49 -54 -88 -61 -88 -17 0 -139 135 -161 180
-15 32 -18 49 -12 92 4 29 15 107 24 173 20 143 43 303 56 400 6 39 21 151 35
250 54 394 65 455 112 600 43 133 59 165 79 165 9 0 78 -16 153 -36z m728 -85
c128 -17 263 -63 263 -90 0 -15 -66 -10 -235 16 -238 36 -286 44 -334 58 l-44
12 69 6 c120 10 200 9 281 -2z m2233 1 c0 -5 -5 -10 -11 -10 -5 0 -7 5 -4 10
3 6 8 10 11 10 2 0 4 -4 4 -10z m-76 -238 c-14 -48 -43 -139 -64 -202 -21 -63
-45 -141 -55 -172 -11 -36 -23 -58 -32 -58 -11 0 -13 6 -8 18 4 9 13 38 21 65
31 106 139 463 152 502 5 14 8 8 10 -23 2 -25 -7 -77 -24 -130z m-2952 96 c47
-74 93 -324 144 -783 10 -93 11 -95 69 -121 30 -14 55 -31 55 -38 0 -9 72 -25
243 -52 l242 -40 -1 -34 c-1 -19 -19 -105 -41 -190 -22 -85 -50 -200 -62 -255
-12 -55 -26 -118 -32 -140 -5 -22 -13 -65 -17 -95 l-8 -55 -49 2 c-66 2 -424
49 -432 56 -9 9 16 133 53 267 51 182 94 322 105 343 5 9 12 36 15 60 5 42 5
42 -66 102 -40 33 -79 60 -87 60 -9 0 -86 -114 -186 -273 -161 -257 -172 -272
-180 -245 -14 49 -12 231 6 418 54 566 104 859 167 991 24 49 41 55 62 22z
m628 -102 c0 -48 -14 -96 -28 -96 -4 0 -17 7 -28 14 -19 15 -18 16 11 70 16
31 33 56 37 56 4 0 8 -20 8 -44z m605 22 c14 -6 27 -21 30 -32 9 -49 23 -342
16 -349 -5 -5 -33 -1 -64 8 l-55 16 -7 106 c-8 109 -3 232 9 252 9 14 38 14
71 -1z m-277 -18 c10 -11 26 -43 35 -72 20 -65 41 -194 33 -207 -9 -14 -94 17
-106 39 -15 28 -24 201 -11 233 13 32 24 34 49 7z m1649 -67 c-3 -21 -13 -83
-22 -138 -8 -55 -20 -131 -26 -170 -19 -139 -28 -163 -61 -174 -52 -18 -58
-15 -58 31 0 49 -11 43 -25 -15 l-11 -42 -119 -33 c-263 -72 -398 -103 -433
-100 -36 3 -37 4 -35 41 3 44 -20 48 -25 6 -2 -18 -14 -30 -37 -41 -23 -10
-35 -12 -35 -4 0 6 33 74 73 150 l72 139 127 42 c201 67 433 193 558 304 25
22 49 40 54 41 5 0 6 -17 3 -37z m372 -189 l1 -90 -60 -29 c-33 -16 -62 -26
-65 -23 -3 3 3 32 13 64 11 33 34 106 52 164 17 58 34 112 38 120 8 20 19 -93
21 -206z m-2390 139 c23 -20 24 -15 -15 -213 -11 -52 -19 -129 -19 -171 0 -72
3 -82 53 -183 30 -60 59 -106 67 -106 17 0 127 76 175 122 85 80 92 102 79
264 -5 64 -7 119 -5 122 3 2 28 -4 57 -14 l51 -19 -4 -120 c-4 -106 -7 -126
-32 -173 -29 -57 -155 -196 -220 -244 -32 -23 -49 -28 -97 -28 -72 0 -209 20
-209 30 0 11 26 20 56 20 13 0 24 6 24 13 0 6 -18 62 -39 123 -78 219 -81 281
-26 449 49 147 61 163 104 128z m201 -96 l105 -52 14 -132 c14 -125 14 -134
-4 -173 -28 -63 -186 -195 -225 -188 -20 4 -98 162 -106 217 -7 48 8 164 46
347 13 62 3 63 170 -19z m1007 -134 c41 -18 60 -32 55 -40 -13 -20 -232 -44
-232 -25 0 5 14 30 32 56 36 55 43 56 145 9z m1290 15 c19 -24 53 -244 53
-339 0 -245 -37 -601 -67 -649 -18 -28 -73 -79 -87 -80 -11 0 -1 153 20 300
22 157 28 324 15 450 -6 58 -12 147 -13 199 l-3 94 30 18 c37 22 40 22 52 7z
m-1985 -8 c42 -12 36 21 63 -335 25 -323 25 -300 -10 -298 -16 0 -83 11 -147
22 -134 24 -128 24 -128 13 0 -5 43 -24 97 -43 53 -19 90 -35 82 -37 -8 -1
-57 2 -109 6 -52 5 -98 6 -101 3 -6 -5 -29 -80 -75 -241 -26 -89 -114 -372
-128 -410 -8 -19 -18 -36 -23 -37 -14 -5 23 190 83 432 8 33 19 78 24 100 5
22 20 82 34 134 14 52 23 98 20 102 -3 5 -14 9 -25 9 -33 0 -20 24 32 59 70
48 191 182 226 250 25 50 28 68 31 169 2 61 7 112 10 112 4 0 24 -5 44 -10z
m180 -58 c5 -5 15 -130 24 -278 16 -297 20 -337 35 -329 5 4 27 34 49 68 37
56 40 65 34 109 -6 45 -2 56 54 165 33 65 73 141 89 168 l29 50 80 6 c43 4 96
10 117 14 27 5 37 4 37 -5 0 -7 -46 -102 -102 -212 l-103 -200 -61 -27 c-59
-27 -95 -68 -144 -160 -12 -23 -14 -24 -105 -17 -88 6 -179 28 -200 48 -6 7 9
8 44 3 l54 -7 -6 63 c-3 35 -11 127 -17 204 -6 77 -15 189 -21 248 -5 59 -7
112 -4 116 6 10 103 -13 117 -27z m1718 -282 c10 -160 10 -234 2 -290 -6 -41
-18 -142 -27 -225 -25 -245 -21 -232 -85 -268 -62 -35 -245 -117 -260 -117
-13 0 -13 376 0 487 5 46 23 122 40 170 65 181 150 434 150 447 0 20 36 48 99
78 l56 26 7 -46 c3 -26 12 -144 18 -262z m-1541 255 c58 -9 106 -17 108 -18 1
-2 -6 -19 -16 -38 -138 -257 -153 -293 -147 -342 4 -41 1 -55 -21 -88 -14 -21
-29 -39 -33 -39 -4 0 -10 51 -13 113 -4 61 -11 179 -17 261 -6 81 -9 155 -6
163 4 8 13 12 23 9 10 -3 65 -12 122 -21z m1341 -53 c0 -12 -30 -104 -39 -122
-5 -9 -12 -31 -16 -50 -4 -19 -11 -41 -16 -50 -4 -8 -31 -79 -58 -158 -48
-133 -52 -154 -67 -310 -10 -114 -13 -207 -8 -294 6 -114 5 -128 -10 -134 -9
-4 -20 -4 -23 0 -4 4 -11 59 -17 122 -20 229 16 421 129 704 8 19 33 89 55
155 22 66 42 126 45 133 5 13 25 17 25 4z m-400 -141 c0 -11 -6 -71 -14 -133
-8 -62 -18 -153 -22 -201 -6 -82 -8 -89 -33 -101 -63 -32 -409 -131 -528 -151
-39 -6 -44 -5 -55 19 -16 37 1 192 48 434 4 19 11 22 52 22 42 0 340 72 472
114 63 20 80 20 80 -3z m-630 -122 c0 -21 -35 -193 -65 -314 -8 -33 -22 -97
-32 -142 -19 -88 -29 -97 -63 -63 -11 11 -22 20 -24 20 -5 0 -13 -24 -40 -120
-71 -248 -128 -425 -141 -438 -13 -13 -755 71 -755 86 0 2 18 57 39 121 21 64
44 132 49 151 6 19 27 91 47 160 20 69 42 145 49 170 20 71 34 91 59 86 12 -3
81 -10 152 -16 93 -8 171 -22 275 -50 189 -52 246 -63 275 -56 49 12 85 95
111 254 21 133 32 172 49 172 9 0 15 -9 15 -21z m-69 -55 c-6 -22 -11 -52 -11
-69 0 -45 -36 -181 -57 -217 -28 -49 -43 -54 -115 -40 -100 20 -134 33 -115
43 8 5 27 30 43 56 51 89 82 121 137 141 47 18 55 25 82 80 32 65 53 68 36 6z
m-78 -498 c23 -17 22 -30 -12 -171 -60 -248 -103 -389 -128 -417 -20 -23 -76
-23 -255 -3 -113 13 -491 72 -580 91 -30 6 -36 25 -14 43 11 9 61 6 218 -13
111 -14 281 -33 376 -42 170 -18 173 -18 191 2 19 20 151 423 151 462 0 19 19
62 27 62 5 0 16 -7 26 -14z m537 -4 c0 -9 -166 -109 -375 -226 -137 -77 -173
-101 -162 -112 7 -7 212 8 310 23 69 10 37 -12 -65 -46 -128 -41 -228 -90
-290 -143 -52 -43 -53 -43 -38 -2 14 35 43 144 71 259 12 50 30 119 39 155
l17 65 109 -2 c71 -2 148 4 219 16 127 21 165 24 165 13z m445 -384 c9 -81 0
-296 -14 -373 -23 -120 -130 -386 -183 -454 -24 -32 -23 -20 6 42 45 100 98
233 135 337 35 102 36 109 36 245 -1 77 -6 164 -13 193 -13 56 -10 72 13 72 9
0 16 -20 20 -62z m-2205 -24 c169 -21 184 -25 188 -52 4 -25 -2 -26 -68 -12
-25 6 -79 17 -120 25 -100 20 -188 41 -225 54 -25 9 -19 10 35 6 36 -3 121
-12 190 -21z m1508 -336 c5 -26 -106 -107 -234 -172 -102 -52 -204 -130 -204
-157 0 -5 -5 -9 -11 -9 -12 0 -12 3 10 228 4 46 13 89 20 95 13 14 239 35 346
33 57 -1 70 -4 73 -18z"/>
</g>
</svg>
