<svg width="36" height="36" viewBox="0 0 36 36" fill="none" xmlns="http://www.w3.org/2000/svg">
<path d="M35.1664 30.4273L24.0086 19.2672C22.531 17.7897 23.2444 16.7044 23.2444 16.7044L23.2376 16.697C23.731 15.6807 23.5648 14.4276 22.7226 13.5837L18.3793 9.24039C17.3133 8.17378 15.5848 8.17378 14.5182 9.24039L13.8546 9.90285L13.7839 9.97407C13.7839 9.97407 13.4793 10.58 14.8681 10.6608L14.8686 10.6625C14.8686 10.6625 15.5073 10.7168 16.1314 11.3408L17.6688 12.8783C18.2307 13.4396 18.2459 14.0251 18.2199 14.2886C18.0916 15.0121 17.7581 15.7056 17.198 16.2641C16.6435 16.8203 15.9539 17.1509 15.236 17.2798C14.9178 17.3092 14.3124 17.2544 13.642 16.584L12.4765 15.4168C11.7423 14.6825 11.5863 13.7352 11.5863 13.7352H11.5846C11.3003 12.447 10.9114 12.8483 10.9114 12.8483L10.1766 13.5831C9.11051 14.6486 9.11051 16.3777 10.176 17.4443L14.5187 21.7865C15.4062 22.6745 16.7497 22.8118 17.7915 22.2223L17.7994 22.2307C17.7994 22.2307 18.7552 21.6265 20.0417 22.9141L31.6212 34.4953C31.6212 34.4953 33.0287 35.8774 34.3564 34.5502L35.4519 33.4547C35.8221 33.041 36.6061 31.867 35.1664 30.4273Z" fill="black"/>
<path d="M23.0675 28.9075C22.3745 28.0834 21.2621 28.5944 21.2621 28.5944L21.2593 28.587C21.1643 28.6193 21.071 28.6571 20.9744 28.6871C20.9439 28.6984 20.9246 28.7108 20.889 28.725C19.3697 29.2846 19.3555 30.4399 19.3555 30.4399V31.7948C19.3341 32.9479 18.4138 33.1502 17.9379 33.1808H17.3868C16.2043 33.2045 15.9924 32.4816 15.9618 32.0949V30.5349C15.9618 29.1003 14.3605 28.704 14.3605 28.704L14.3656 28.6973C13.4985 28.4406 12.6783 28.0761 11.9079 27.6386C11.8757 27.6244 11.8503 27.616 11.8152 27.5984C10.5191 26.949 9.55313 27.8652 9.55313 27.8652L8.45148 28.9669C7.68219 29.7334 7.11299 29.3761 6.90441 29.1868L6.81567 29.0969L6.81228 29.0924L5.90676 28.1874C5.9062 28.1857 5.90507 28.1857 5.90337 28.184C5.19513 27.4769 6.11647 26.5041 6.23913 26.3815L7.31365 25.3081C7.31421 25.3081 7.31421 25.3053 7.31421 25.3053C8.14229 24.4772 7.4917 23.1879 7.4917 23.1879C7.4917 23.1879 7.50074 23.1862 7.50244 23.1862C7.08925 22.4355 6.74784 21.6402 6.50422 20.7992C6.49631 20.7771 6.48727 20.763 6.47879 20.7398C5.93333 19.2317 4.55754 19.2572 4.53097 19.2572L3.48697 19.2617C2.26492 19.2634 2.04504 18.4692 2.01226 18.0515L2.00943 17.2099C2.01678 16.8623 2.14283 15.8787 3.37901 15.868L4.7175 15.8623C4.7175 15.8623 5.97855 15.9211 6.42622 14.5776C6.43244 14.5606 6.44092 14.5516 6.44657 14.5346C6.71506 13.5449 7.10225 12.6054 7.60531 11.7412C7.60531 11.7412 7.60531 11.7406 7.60531 11.7395C8.24403 10.4547 7.33174 9.49096 7.21247 9.37395L6.30243 8.46504C6.30243 8.46504 6.30243 8.46448 6.30074 8.46278C5.42292 7.58496 6.02433 6.82415 6.23291 6.6071L6.70715 6.13286C6.70715 6.13286 7.70762 5.0736 8.76688 6.13286C8.76858 6.13286 8.76858 6.13343 8.76971 6.13456L9.8041 7.16895C9.99911 7.35378 10.795 8.00098 11.9368 7.44648C11.9413 7.44478 11.943 7.44478 11.9469 7.44309C12.6817 7.02707 13.4719 6.70036 14.2944 6.4494C14.3164 6.44035 14.3283 6.42961 14.3532 6.41944C15.6781 5.89885 15.9251 5.08208 15.9618 4.65984V3.11561C15.9692 2.85729 16.0681 1.84042 17.2557 1.84042H17.9984C17.9984 1.84042 19.3533 1.7952 19.3533 3.30383V4.46936C19.3606 4.80172 19.4765 5.90903 20.7539 6.35952C20.7562 6.36009 20.7562 6.36122 20.7596 6.36235C21.5328 6.57544 22.2705 6.87502 22.9702 7.23678L22.9776 7.23056C22.9776 7.23056 24.5716 8.21973 25.775 7.01746L26.5799 6.21256C26.6172 6.17525 27.7064 5.12051 28.5209 5.93503C28.5226 5.93559 28.5243 5.93672 28.5243 5.93842L29.1913 6.60371C29.1913 6.60371 30.0001 7.58836 28.9816 8.60748L28.08 9.50904C28.08 9.50904 27.14 10.4722 27.8228 11.9317C27.8347 11.9571 27.8347 11.9724 27.8454 11.9972C28.2615 12.7552 28.5899 13.5663 28.8318 14.4159C28.8341 14.4142 28.8431 14.4069 28.8431 14.4069C28.8431 14.4069 29.1348 15.8708 30.4405 15.8674L31.7077 15.8618H31.7417H31.7987C31.8355 15.8612 33.3464 15.8369 33.3498 17.2641L33.3537 17.8639V17.8656V18.0131C33.3413 18.3664 33.1728 19.2493 31.7682 19.2544L30.553 19.2583C29.6028 19.2674 29.1302 20.0457 28.9222 20.5408C28.8431 20.7573 28.6583 21.4594 29.3286 22.119L29.501 22.2886C29.5044 22.2914 29.5067 22.2931 29.509 22.2959C30.5106 23.3699 31.2256 21.8658 31.2256 21.8658C31.68 21.1106 32.3442 20.9591 32.6997 20.9348H34.5532C35.1167 20.9348 35.5734 20.4787 35.5734 19.9146V15.2089C35.5734 14.6465 35.1167 14.1887 34.5532 14.1887H32.7851C31.3986 14.1887 31.0487 12.9022 31.0487 12.9022C31.0487 12.9022 31.0396 12.9044 31.0368 12.9056C30.8305 12.3121 30.5959 11.7304 30.315 11.1754C30.315 11.1737 30.315 11.1725 30.3133 11.1708C29.8458 10.1421 30.7225 9.26542 30.7706 9.21964L31.8988 8.08916C32.2967 7.69066 32.2967 7.04516 31.8988 6.6461L28.5718 3.31909C28.1722 2.92116 27.5267 2.92173 27.1287 3.31966L26.3091 4.13813C25.0294 5.42574 23.8294 4.80398 23.8294 4.80398L23.8277 4.80737C23.3676 4.58693 22.8968 4.38796 22.4129 4.21556C22.3903 4.20483 22.3745 4.19522 22.3513 4.18561C21.2813 3.74755 21.1406 2.65098 21.127 2.2067V1.02026C21.127 0.456714 20.6697 0 20.1067 0H15.2089C14.6465 0 14.1887 0.456714 14.1887 1.02026V2.49497C14.1887 3.97195 12.9395 4.19578 12.9395 4.19578L12.9468 4.20313C12.4065 4.39588 11.8768 4.61123 11.367 4.86446C11.3579 4.86785 11.3529 4.86616 11.3438 4.86955C10.3253 5.32061 9.76227 4.87859 9.61926 4.74011L9.58422 4.70506L9.57913 4.69885L8.19882 3.31627C7.79976 2.91834 7.15369 2.91834 6.75576 3.31457L3.42536 6.64045C3.02743 7.03951 3.0263 7.68445 3.42536 8.08294L4.53097 9.18968C4.53097 9.18968 5.48962 10.1139 5.01425 11.1516C5.01425 11.1533 5.01425 11.1533 5.01425 11.1533C4.73898 11.6943 4.50779 12.2601 4.30318 12.8377C4.28905 12.8677 4.27548 12.8909 4.26135 12.9259C3.83742 13.9609 3.05004 14.1581 2.62893 14.1887H1.02026C0.456714 14.1887 0 14.6465 0 15.2089V19.9146C0 20.4787 0.456714 20.9348 1.02026 20.9348H2.85164C3.88772 20.9348 4.16017 21.8906 4.16017 21.8906C4.16017 21.8906 4.16752 21.8731 4.17204 21.8646C4.38401 22.5243 4.62593 23.1703 4.9272 23.7836C4.92664 23.7836 4.92099 23.7865 4.92099 23.7865C4.92099 23.7865 5.56819 24.8836 4.84298 25.6088V25.6105L3.41914 27.0338C3.02121 27.4317 3.02121 28.0795 3.41914 28.4757L6.74671 31.8027C7.14577 32.2018 7.79071 32.2018 8.18864 31.8027L9.46948 30.5241L9.4723 30.5202L9.52939 30.4642C9.70518 30.2969 10.3219 29.8419 11.5117 30.3331C11.5241 30.3393 11.5315 30.341 11.5428 30.3449C11.9967 30.5597 12.4636 30.7553 12.9417 30.9232L12.9361 30.9283C12.9361 30.9283 14.1892 31.3013 14.1892 32.5601V34.1044C14.1892 34.6685 14.6471 35.1246 15.2095 35.1246H20.1073C20.6703 35.1246 21.1276 34.6685 21.1276 34.1044V32.4132C21.1502 32.0401 21.3158 31.3358 22.1936 30.9904C22.2275 30.9763 22.249 30.9644 22.2756 30.9526C22.6147 30.8344 22.9403 30.6903 23.2681 30.5501C24.06 30.1104 23.3258 29.2139 23.3258 29.2139L23.0675 28.9075Z" fill="black"/>
</svg>
